<svg xmlns="http://www.w3.org/2000/svg" width="62" height="62" viewBox="0 0 62 62">
    <g fill="none" fill-rule="evenodd" stroke="#00A3E0" stroke-width="2">
        <path d="M30.664 39.012c-.38-.06-.664-.38-.664-.765v-7.078c0-.43-.349-.78-.78-.78H21.41c-.197 2.184-2.03 3.897-4.266 3.897-2.235 0-4.069-1.713-4.266-3.896H5.065c-.43 0-.78.348-.78.78v7.078c0 .384-.282.705-.661.764-1.073.166-2.014.73-2.668 1.537C.358 41.286 0 42.225 0 43.247c0 1.183.48 2.254 1.255 3.03.628.628 1.45 1.062 2.367 1.204.38.06.663.38.663.766v7.078c0 .43.35.78.78.78h7.156c.355 0 .67.24.75.585.198.853.652 1.608 1.274 2.181.763.7 1.78 1.13 2.898 1.13s2.135-.43 2.897-1.13c.623-.573 1.077-1.328 1.274-2.18.082-.347.396-.587.75-.587h7.156c.431 0 .78-.349.78-.779v-7.078c0-.385.283-.706.664-.766 2.051-.318 3.621-2.093 3.621-4.234s-1.57-3.916-3.621-4.235zM58.45 14.233c-.582-.483-1.293-.814-2.073-.936-.38-.058-.663-.379-.663-.765V5.455c0-.43-.349-.78-.78-.78h-7.811c.012-.128.02-.258.02-.39 0-1.066-.39-2.04-1.034-2.791C45.323.58 44.158 0 42.857 0c-1.183 0-2.254.48-3.03 1.255-.776.776-1.256 1.847-1.256 3.03 0 .132.008.262.02.39H30.78c-.43 0-.78.35-.78.78v7.792c2.368 0 4.287 1.918 4.287 4.286 0 2.366-1.919 4.285-4.286 4.285v7.792c0 .43.349.78.78.78h7.812c-.013-.129-.02-.258-.02-.39 0-.979.327-1.88.879-2.602.783-1.023 2.017-1.684 3.406-1.684.888 0 1.713.27 2.396.732 1.14.77 1.89 2.074 1.89 3.554 0 .132-.008.261-.02.39h7.812c.43 0 .78-.35.78-.78v-7.079c0-.38.276-.705.652-.763.717-.109 1.376-.396 1.93-.815C59.33 20.171 60 18.93 60 17.533c0-1.328-.603-2.514-1.55-3.3z" transform="translate(1 1)"/>
        <path d="M30.664 13.298c-.38-.06-.664-.38-.664-.765V5.455c0-.431-.349-.78-.78-.78h-7.155c-.355 0-.67.24-.75.587-.442 1.896-2.141 3.31-4.172 3.31-2.031 0-3.73-1.414-4.172-3.31-.08-.346-.395-.586-.75-.586H5.065c-.43 0-.78.348-.78.779v7.078c0 .384.284.705.664.765 2.052.318 3.622 2.093 3.622 4.235 0 2.141-1.57 3.915-3.622 4.234-.38.06-.664.38-.664.765v7.079c0 .43.35.779.78.779h7.156c.355 0 .67.24.75.586.003.01.008.02.01.032.109.449.287.869.524 1.25l.034.055c.116.18.246.351.387.512.02.022.039.044.06.065.144.159.298.308.466.443.01.01.024.017.036.027.165.131.341.25.525.356.017.009.033.02.05.03.184.102.377.188.576.263l.109.04c.198.068.402.123.611.161.035.007.07.011.106.017.222.035.447.059.678.059.231 0 .456-.024.678-.06.035-.005.07-.009.105-.016.21-.038.414-.093.612-.16l.108-.04c.2-.076.393-.162.577-.264l.05-.031c.185-.106.36-.224.526-.355.01-.01.023-.018.035-.027.167-.135.322-.284.467-.443l.059-.065c.141-.16.271-.331.386-.512.013-.018.023-.037.035-.055.237-.381.415-.801.523-1.25.003-.011.008-.02.01-.032.082-.346.396-.586.75-.586h7.156c.431 0 .78-.35.78-.78v-7.078c0-.385.283-.706.664-.765 2.051-.319 3.621-2.093 3.621-4.234 0-2.142-1.57-3.917-3.621-4.235zM55.714 38.247v-7.078c0-.43-.349-.779-.779-.779h-7.812c.012-.13.02-.259.02-.39 0-1.16-.46-2.211-1.208-2.982-.78-.804-1.87-1.303-3.078-1.303-1.388 0-2.623.66-3.407 1.684-.551.721-.879 1.623-.879 2.601 0 .131.008.26.02.39h-7.812c-.43 0-.779.348-.779.78v7.077c0 .385.283.706.664.765.634.098 1.222.337 1.732.681 1.14.77 1.89 2.074 1.89 3.554 0 1.46-.73 2.748-1.844 3.522-.521.363-1.127.611-1.781.713-.38.059-.661.38-.661.765v7.078c0 .43.35.78.78.78h7.156c.359 0 .669.246.752.595.179.76.56 1.444 1.084 1.987.78.81 1.873 1.313 3.085 1.313 1.358 0 2.567-.632 3.352-1.616.387-.486.67-1.059.818-1.684.082-.35.392-.596.752-.596h7.156c.43 0 .78-.349.78-.779v-7.078c0-.385-.284-.706-.665-.766-.634-.098-1.221-.336-1.732-.68-1.14-.77-1.89-2.075-1.89-3.554 0-1.051.378-2.013 1.007-2.76.65-.772 1.57-1.312 2.615-1.475.38-.06.664-.38.664-.765z" transform="translate(1 1)"/>
    </g>
</svg>
