<svg xmlns="http://www.w3.org/2000/svg" width="55" height="62" viewBox="0 0 55 62">
    <g fill="none" fill-rule="evenodd" stroke="#00A3E0" stroke-width="2">
        <path d="M8.38 29.913V15.851c0-6.731 5.418-12.188 12.103-12.188S32.586 9.12 32.586 15.851v1.87c0 1.035-.834 1.875-1.862 1.875-1.029 0-1.862-.84-1.862-1.875v-1.868c0-4.66-3.751-8.438-8.38-8.438-4.627 0-8.379 3.777-8.379 8.438v14.06" transform="translate(1 1)"/>
        <path d="M40.966 54.288c0 3.107-2.501 5.625-5.587 5.625H5.586C2.502 59.913 0 57.395 0 54.288v-18.75c0-3.107 2.502-5.625 5.586-5.625H35.38c3.086 0 5.587 2.518 5.587 5.625v18.75z" transform="translate(1 1)"/>
        <path d="M22.345 47.726c0 1.035-.834 1.875-1.862 1.875-1.029 0-1.862-.84-1.862-1.875V42.1c0-1.035.833-1.875 1.862-1.875 1.028 0 1.862.84 1.862 1.875v5.625zM38.322 9.261L46.86.663M39.658 22.539L44.689 28.038M42.93 15.227L53.142 15.227" transform="translate(1 1)"/>
    </g>
</svg>
