<svg xmlns="http://www.w3.org/2000/svg" width="62" height="54" viewBox="0 0 62 54">
    <g fill="none" fill-rule="evenodd" stroke="#00A3E0" stroke-width="2">
        <path d="M29.172 0C14.525 0 2.652 11.832 2.652 26.429v1.321H0L6.63 37l5.304-9.25H9.282v-1.321c0-10.947 8.905-19.822 19.89-19.822 7.086 0 13.305 3.692 16.828 9.251M28.828 52c14.647 0 26.52-11.832 26.52-26.429V24.25H58L51.37 15l-5.304 9.25h2.652v1.321c0 10.947-8.905 19.822-19.89 19.822-7.086 0-13.305-3.692-16.828-9.251" transform="translate(2 1)"/>
        <path d="M22 27.667L27 33 37 21" transform="translate(2 1)"/>
    </g>
</svg>
