<svg xmlns="http://www.w3.org/2000/svg" width="62" height="56" viewBox="0 0 62 56">
    <g fill="none" fill-rule="evenodd" stroke="#00A3E0" stroke-width="2">
        <path d="M46 25c0 12.703-10.299 23-23 23C10.297 48 0 37.703 0 25S10.297 2 23 2c12.701 0 23 10.297 23 23z" transform="translate(1 1)"/>
        <path d="M37 25c0 7.732-6.269 14-14 14S9 32.732 9 25s6.269-14 14-14 14 6.268 14 14z" transform="translate(1 1)"/>
        <path d="M27 25c0 2.21-1.792 4-4 4-2.211 0-4-1.79-4-4 0-2.208 1.789-4 4-4 2.208 0 4 1.792 4 4zM10 44L4 54M36 44L42 54" transform="translate(1 1)"/>
        <path d="M23 24L53.057 7.148 55 0M53 8L60 10" transform="translate(1 1)"/>
    </g>
</svg>
